<mxfile host="www.draw.io" modified="2019-12-09T06:16:40.176Z" agent="Mozilla/5.0 (Windows NT 10.0; Win64; x64; rv:71.0) Gecko/20100101 Firefox/71.0" etag="qE7hs9ZbzJ6Nl9ZyLY5c" version="12.3.8" type="github" pages="1">
  <diagram id="OPkZmGX264S3fKWTcn9Q" name="Page-1">
    <mxGraphModel dx="2108" dy="930" grid="0" gridSize="10" guides="1" tooltips="1" connect="1" arrows="1" fold="1" page="0" pageScale="1" pageWidth="850" pageHeight="1100" math="0" shadow="0">
      <root>
        <mxCell id="0"/>
        <mxCell id="1" parent="0"/>
        <mxCell id="50RSa4Xtqqn4gaT57nzf-1" value="App" style="shape=umlLifeline;perimeter=lifelinePerimeter;whiteSpace=wrap;html=1;container=1;collapsible=0;recursiveResize=0;outlineConnect=0;rounded=1;shadow=0;comic=0;labelBackgroundColor=none;strokeWidth=1;fontFamily=Verdana;fontSize=12;align=center;" vertex="1" parent="1">
          <mxGeometry x="240" y="91" width="120" height="630" as="geometry"/>
        </mxCell>
        <mxCell id="50RSa4Xtqqn4gaT57nzf-16" value="" style="rounded=0;whiteSpace=wrap;html=1;" vertex="1" parent="50RSa4Xtqqn4gaT57nzf-1">
          <mxGeometry x="55" y="74" width="10" height="463" as="geometry"/>
        </mxCell>
        <mxCell id="50RSa4Xtqqn4gaT57nzf-2" value="Database" style="shape=umlLifeline;perimeter=lifelinePerimeter;whiteSpace=wrap;html=1;container=1;collapsible=0;recursiveResize=0;outlineConnect=0;rounded=1;shadow=0;comic=0;labelBackgroundColor=none;strokeWidth=1;fontFamily=Verdana;fontSize=12;align=center;" vertex="1" parent="1">
          <mxGeometry x="645" y="91" width="100" height="628" as="geometry"/>
        </mxCell>
        <mxCell id="50RSa4Xtqqn4gaT57nzf-13" value="" style="group" vertex="1" connectable="0" parent="1">
          <mxGeometry x="-126" y="42" width="110" height="680" as="geometry"/>
        </mxCell>
        <mxCell id="50RSa4Xtqqn4gaT57nzf-14" value="" style="shape=umlLifeline;perimeter=lifelinePerimeter;whiteSpace=wrap;html=1;container=1;collapsible=0;recursiveResize=0;outlineConnect=0;rounded=1;shadow=0;comic=0;labelBackgroundColor=none;strokeWidth=1;fontFamily=Verdana;fontSize=12;align=center;size=89;" vertex="1" parent="50RSa4Xtqqn4gaT57nzf-13">
          <mxGeometry width="110" height="679.9999999999999" as="geometry"/>
        </mxCell>
        <mxCell id="50RSa4Xtqqn4gaT57nzf-15" value="&amp;nbsp;Administrator&amp;nbsp;" style="shape=umlActor;verticalLabelPosition=bottom;labelBackgroundColor=#ffffff;verticalAlign=top;html=1;outlineConnect=0;" vertex="1" parent="50RSa4Xtqqn4gaT57nzf-14">
          <mxGeometry x="35" y="14.12140575079872" width="30" height="65.17571884984025" as="geometry"/>
        </mxCell>
        <mxCell id="50RSa4Xtqqn4gaT57nzf-56" value="" style="rounded=0;whiteSpace=wrap;html=1;fontSize=21;" vertex="1" parent="50RSa4Xtqqn4gaT57nzf-14">
          <mxGeometry x="50" y="109" width="10" height="526" as="geometry"/>
        </mxCell>
        <mxCell id="50RSa4Xtqqn4gaT57nzf-18" value="" style="endArrow=classic;html=1;entryX=0;entryY=0.25;entryDx=0;entryDy=0;" edge="1" parent="1">
          <mxGeometry width="50" height="50" relative="1" as="geometry">
            <mxPoint x="-64" y="180" as="sourcePoint"/>
            <mxPoint x="295.0000000000002" y="180" as="targetPoint"/>
          </mxGeometry>
        </mxCell>
        <mxCell id="50RSa4Xtqqn4gaT57nzf-27" value="Request to create new admin" style="text;html=1;strokeColor=none;fillColor=none;align=center;verticalAlign=middle;whiteSpace=wrap;rounded=0;fontSize=20;" vertex="1" parent="1">
          <mxGeometry x="22.5" y="146.5" width="200" height="18" as="geometry"/>
        </mxCell>
        <mxCell id="50RSa4Xtqqn4gaT57nzf-35" value="" style="endArrow=classic;html=1;fontSize=21;exitX=0.214;exitY=0.423;exitDx=0;exitDy=0;exitPerimeter=0;" edge="1" parent="1">
          <mxGeometry width="50" height="50" relative="1" as="geometry">
            <mxPoint x="297.1400000000001" y="244.438" as="sourcePoint"/>
            <mxPoint x="-67" y="244" as="targetPoint"/>
          </mxGeometry>
        </mxCell>
        <mxCell id="50RSa4Xtqqn4gaT57nzf-37" value="New Admin Info" style="text;html=1;strokeColor=none;fillColor=none;align=center;verticalAlign=middle;whiteSpace=wrap;rounded=0;fontSize=21;" vertex="1" parent="1">
          <mxGeometry x="40" y="211" width="165" height="20" as="geometry"/>
        </mxCell>
        <mxCell id="50RSa4Xtqqn4gaT57nzf-38" value="" style="endArrow=classic;html=1;fontSize=21;entryX=0.214;entryY=0.47;entryDx=0;entryDy=0;entryPerimeter=0;dashed=1;" edge="1" parent="1">
          <mxGeometry width="50" height="50" relative="1" as="geometry">
            <mxPoint x="-64" y="333" as="sourcePoint"/>
            <mxPoint x="297.1399999999999" y="332.6099999999999" as="targetPoint"/>
          </mxGeometry>
        </mxCell>
        <mxCell id="50RSa4Xtqqn4gaT57nzf-39" value="Name, UserName, Password" style="text;html=1;strokeColor=none;fillColor=none;align=center;verticalAlign=middle;whiteSpace=wrap;rounded=0;fontSize=21;" vertex="1" parent="1">
          <mxGeometry x="-26" y="297.5" width="297" height="17" as="geometry"/>
        </mxCell>
        <mxCell id="50RSa4Xtqqn4gaT57nzf-41" value="" style="endArrow=classic;html=1;fontSize=21;exitX=0.929;exitY=0.881;exitDx=0;exitDy=0;exitPerimeter=0;" edge="1" parent="1">
          <mxGeometry width="50" height="50" relative="1" as="geometry">
            <mxPoint x="304.28999999999996" y="354.586" as="sourcePoint"/>
            <mxPoint x="694.5" y="354.586" as="targetPoint"/>
          </mxGeometry>
        </mxCell>
        <mxCell id="50RSa4Xtqqn4gaT57nzf-42" value="CheckForDuplicate?(UserName)" style="text;html=1;strokeColor=none;fillColor=none;align=center;verticalAlign=middle;whiteSpace=wrap;rounded=0;fontSize=21;" vertex="1" parent="1">
          <mxGeometry x="325" y="316.5" width="380" height="20" as="geometry"/>
        </mxCell>
        <mxCell id="50RSa4Xtqqn4gaT57nzf-43" value="" style="endArrow=classic;html=1;fontSize=21;entryX=1;entryY=0.75;entryDx=0;entryDy=0;dashed=1;" edge="1" parent="1" source="50RSa4Xtqqn4gaT57nzf-2">
          <mxGeometry width="50" height="50" relative="1" as="geometry">
            <mxPoint x="520.5" y="412.0000000000002" as="sourcePoint"/>
            <mxPoint x="305" y="412.0000000000002" as="targetPoint"/>
          </mxGeometry>
        </mxCell>
        <mxCell id="50RSa4Xtqqn4gaT57nzf-44" value="No" style="text;html=1;strokeColor=none;fillColor=none;align=center;verticalAlign=middle;whiteSpace=wrap;rounded=0;fontSize=21;" vertex="1" parent="1">
          <mxGeometry x="480.5" y="381" width="40" height="20" as="geometry"/>
        </mxCell>
        <mxCell id="50RSa4Xtqqn4gaT57nzf-45" value="" style="endArrow=classic;html=1;fontSize=21;" edge="1" parent="1" target="50RSa4Xtqqn4gaT57nzf-2">
          <mxGeometry width="50" height="50" relative="1" as="geometry">
            <mxPoint x="310" y="497" as="sourcePoint"/>
            <mxPoint x="520.5" y="497" as="targetPoint"/>
          </mxGeometry>
        </mxCell>
        <mxCell id="50RSa4Xtqqn4gaT57nzf-46" value="addNewAdmin()" style="text;html=1;strokeColor=none;fillColor=none;align=center;verticalAlign=middle;whiteSpace=wrap;rounded=0;fontSize=21;" vertex="1" parent="1">
          <mxGeometry x="432" y="458.5" width="137" height="20" as="geometry"/>
        </mxCell>
        <mxCell id="50RSa4Xtqqn4gaT57nzf-54" value="" style="endArrow=classic;html=1;fontSize=21;entryX=0.994;entryY=0.863;entryDx=0;entryDy=0;entryPerimeter=0;dashed=1;" edge="1" parent="1" target="50RSa4Xtqqn4gaT57nzf-16">
          <mxGeometry width="50" height="50" relative="1" as="geometry">
            <mxPoint x="694.5" y="565" as="sourcePoint"/>
            <mxPoint x="309" y="565" as="targetPoint"/>
          </mxGeometry>
        </mxCell>
        <mxCell id="50RSa4Xtqqn4gaT57nzf-55" value="AdminAdded" style="text;html=1;align=center;verticalAlign=middle;resizable=0;points=[];;autosize=1;fontSize=21;dashed=1;" vertex="1" parent="1">
          <mxGeometry x="422" y="534" width="130" height="29" as="geometry"/>
        </mxCell>
        <mxCell id="50RSa4Xtqqn4gaT57nzf-58" value="" style="endArrow=classic;html=1;fontSize=21;dashed=1;entryX=1;entryY=0.854;entryDx=0;entryDy=0;entryPerimeter=0;exitX=0.1;exitY=0.94;exitDx=0;exitDy=0;exitPerimeter=0;" edge="1" parent="1" source="50RSa4Xtqqn4gaT57nzf-16" target="50RSa4Xtqqn4gaT57nzf-56">
          <mxGeometry width="50" height="50" relative="1" as="geometry">
            <mxPoint x="291" y="608" as="sourcePoint"/>
            <mxPoint x="-71.92857142857156" y="608" as="targetPoint"/>
          </mxGeometry>
        </mxCell>
        <mxCell id="50RSa4Xtqqn4gaT57nzf-59" value="AdminAdded" style="text;html=1;align=center;verticalAlign=middle;resizable=0;points=[];;autosize=1;fontSize=21;dashed=1;" vertex="1" parent="1">
          <mxGeometry x="72" y="566.5" width="130" height="29" as="geometry"/>
        </mxCell>
      </root>
    </mxGraphModel>
  </diagram>
</mxfile>
